# xmcd
#
# Track frame offsets: 
#        195
#        24402
#        48937
#        72487
#        93370
#        99600
#        124225
#        146672
#        172677
#        194602
#        218502
#        244085
#        272342
#
# Disc length: 3951 seconds
#
# Revision: 2
# Processed by: cddbd v1.5.2PL0 Copyright (c) Steve Scherf et al.
# Submitted via: ExactAudioCopy v1.0b3
#
DISCID=b20f6d0d
DTITLE=Drama - Open Invitation
DYEAR=1994
DGENRE=Soul
TTITLE0=Not Today
TTITLE1=Does It Get Any Better (Part I)
TTITLE2=See Me
TTITLE3=Nor Games
TTITLE4=Good Man
TTITLE5=From Girl to Boy
TTITLE6=Tell Me
TTITLE7=Call Me
TTITLE8=Open Invitation
TTITLE9=Good 'N' Plenty
TTITLE10=No Shame
TTITLE11=Break It Down
TTITLE12=Does It Get Any Better (Part II)
EXTD=
EXTT0=
EXTT1=
EXTT2=
EXTT3=
EXTT4=
EXTT5=
EXTT6=
EXTT7=
EXTT8=
EXTT9=
EXTT10=
EXTT11=
EXTT12=
PLAYORDER=
